<svg width="25" height="24" viewBox="0 0 25 24" fill="none" xmlns="http://www.w3.org/2000/svg">
<path d="M21.77 9.18C21.48 8.72 21.17 8.29 20.85 7.89C20.48 7.42 19.78 7.38 19.36 7.8L16.36 10.8C16.58 11.46 16.62 12.22 16.42 13.01C16.07 14.42 14.93 15.56 13.52 15.91C12.73 16.11 11.97 16.07 11.31 15.85C11.31 15.85 9.88 17.28 8.85 18.31C8.35 18.81 8.51 19.69 9.18 19.95C10.25 20.36 11.36 20.57 12.5 20.57C14.28 20.57 16.01 20.05 17.59 19.08C19.2 18.08 20.65 16.61 21.82 14.74C22.77 13.23 22.72 10.69 21.77 9.18Z" fill="#A1A8AE"/>
<path d="M14.52 9.98L10.48 14.02C9.97 13.5 9.64 12.78 9.64 12C9.64 10.43 10.92 9.14 12.5 9.14C13.28 9.14 14 9.47 14.52 9.98Z" fill="#A1A8AE"/>
<path d="M18.75 5.75L15.36 9.14C14.63 8.4 13.62 7.96 12.5 7.96C10.26 7.96 8.46 9.77 8.46 12C8.46 13.12 8.91 14.13 9.64 14.86L6.26 18.25H6.25C5.14 17.35 4.12 16.2 3.25 14.84C2.25 13.27 2.25 10.72 3.25 9.15C4.41 7.33 5.83 5.9 7.41 4.92C8.99 3.96 10.72 3.43 12.5 3.43C14.73 3.43 16.89 4.25 18.75 5.75Z" fill="#A1A8AE"/>
<path d="M15.36 12C15.36 13.57 14.08 14.86 12.5 14.86C12.44 14.86 12.39 14.86 12.33 14.84L15.34 11.83C15.36 11.89 15.36 11.94 15.36 12Z" fill="#A1A8AE"/>
<path d="M22.27 2.23C21.97 1.93 21.48 1.93 21.18 2.23L2.73 20.69C2.43 20.99 2.43 21.48 2.73 21.78C2.88 21.92 3.07 22 3.27 22C3.47 22 3.66 21.92 3.81 21.77L22.27 3.31C22.58 3.01 22.58 2.53 22.27 2.23Z" fill="#A1A8AE"/>
</svg>
